<svg width="123" height="17" viewBox="0 0 123 17" fill="none" xmlns="http://www.w3.org/2000/svg">
<path d="M8.03418 16.1611C10.7949 16.1611 12.9111 14.8828 14.2539 13.1963L11.9873 11.252C11.0635 12.4014 9.65625 13.2285 8.03418 13.2285C5.24121 13.2285 3.30762 11.1338 3.30762 8.24414C3.30762 5.11816 5.31641 3.1416 8.03418 3.1416C9.65625 3.1416 11.0742 4.0332 11.9873 5.12891L14.2539 3.19531C12.5352 1.08984 10.1826 0.198242 8.03418 0.198242C2.93164 0.198242 0.0742188 3.78613 0.0742188 8.24414C0.0742188 13.4004 3.75879 16.1719 8.03418 16.1719V16.1611Z" fill="#56B374"/>
<path d="M23.9756 5.25781V6.48242H23.9219C23.127 5.55859 22.0205 5.0752 20.7529 5.0752C17.874 5.0752 15.6934 7.39551 15.6934 10.6611C15.6934 13.9805 17.8633 16.1826 20.8496 16.1826C22.2246 16.1826 23.3096 15.6562 24.0508 14.7002H24.1045V16H26.8545V5.25781H23.9756ZM21.376 13.6045C19.7646 13.6045 18.626 12.4121 18.626 10.6719C18.626 8.83496 19.8398 7.66406 21.3867 7.66406C22.9443 7.66406 24.0938 8.95312 24.0938 10.6719C24.0938 12.4336 22.8584 13.6045 21.3652 13.6045H21.376Z" fill="#56B374"/>
<path d="M34.5996 16.1826C36.7695 16.1826 38.4238 15.334 39.3477 14.2598L37.3818 12.5195C36.877 13.0889 36.0283 13.6045 34.8896 13.6045C33.1816 13.6045 32.0107 12.3799 32.0107 10.6289C32.0107 8.87793 33.1494 7.66406 34.8574 7.66406C35.9424 7.66406 36.7803 8.13672 37.3604 8.81348L39.3047 7.1377C38.2197 5.77344 36.4473 5.0752 34.7393 5.0752C31.4092 5.0752 29.0781 7.3418 29.0781 10.6396C29.0781 13.9375 31.4199 16.1826 34.5996 16.1826Z" fill="#56B374"/>
<path d="M44.708 16.1826C46.1475 16.1826 46.8564 15.8926 47.5439 15.5166L46.8027 13.2178C46.3193 13.4648 45.7822 13.5938 45.4492 13.5938C44.7725 13.5938 44.5039 13.1426 44.5039 12.2188V7.65332H47.4258V5.26855H44.5039V1.44434L41.625 1.75586V5.25781H40.3574V7.64258H41.625V12.6055C41.625 15.0225 42.8496 16.1826 44.6973 16.1826H44.708Z" fill="#56B374"/>
<path d="M56.5566 5.25781V10.4678C56.5566 12.5518 55.4287 13.5938 54.1719 13.5938C52.8291 13.5938 52.249 12.9492 52.249 10.9834V5.25781H49.3701V11.7354C49.3701 15.001 51.0029 16.1826 53.3232 16.1826C54.5371 16.1826 55.6758 15.6885 56.5137 14.6895H56.5566V16H59.4355V5.25781H56.5566Z" fill="#56B374"/>
<path d="M65.7412 16.1826C68.5557 16.1826 69.9092 14.7539 69.9092 12.8525C69.9092 10.7363 68.5449 10.2314 66.2139 9.37207C65.1611 8.97461 64.6025 8.66309 64.6025 8.21191C64.6025 7.65332 65.1826 7.40625 65.6553 7.40625C66.4395 7.40625 67.3848 7.76074 68.2119 8.54492L69.6084 6.43945C68.3838 5.49414 67.1699 5.08594 65.6768 5.08594C63.4854 5.08594 61.8096 6.36426 61.8096 8.30859C61.8096 10.3818 63.3457 11.2197 65.1182 11.7998C66.5146 12.251 67.0732 12.498 67.0732 12.9922C67.0732 13.5078 66.5898 13.8838 65.752 13.8838C64.5811 13.8838 63.6572 13.4434 62.7764 12.627L61.3799 14.6143C62.5508 15.6348 64.0117 16.1826 65.7305 16.1826H65.7412Z" fill="#56B374"/>
<path d="M79.5557 5.25781V6.48242H79.502C78.707 5.55859 77.6006 5.0752 76.333 5.0752C73.4541 5.0752 71.2734 7.39551 71.2734 10.6611C71.2734 13.9805 73.4434 16.1826 76.4297 16.1826C77.8047 16.1826 78.8896 15.6562 79.6309 14.7002H79.6846V16H82.4346V5.25781H79.5557ZM76.9561 13.6045C75.3447 13.6045 74.2061 12.4121 74.2061 10.6719C74.2061 8.83496 75.4199 7.66406 76.9668 7.66406C78.5244 7.66406 79.6738 8.95312 79.6738 10.6719C79.6738 12.4336 78.4385 13.6045 76.9453 13.6045H76.9561Z" fill="#56B374"/>
<path d="M92.2422 5.25781V10.4678C92.2422 12.5518 91.1143 13.5938 89.8574 13.5938C88.5146 13.5938 87.9346 12.9492 87.9346 10.9834V5.25781H85.0557V11.7354C85.0557 15.001 86.6885 16.1826 89.0088 16.1826C90.2227 16.1826 91.3613 15.6885 92.1992 14.6895H92.2422V16H95.1211V5.25781H92.2422Z" fill="#56B374"/>
<path d="M104.112 5.0752C102.845 5.0752 101.674 5.69824 100.868 6.83691H100.836V5.25781H97.957V16H100.836V11.0264C100.836 9.42578 101.803 8.22266 103.575 8.22266C103.736 8.22266 104.048 8.2334 104.338 8.25488V5.08594C104.273 5.0752 104.198 5.0752 104.112 5.0752Z" fill="#56B374"/>
<path d="M107.765 3.75391C108.742 3.75391 109.559 2.96973 109.559 1.99219C109.559 1.03613 108.742 0.241211 107.765 0.241211C106.776 0.241211 105.981 1.03613 105.981 1.99219C105.981 2.96973 106.776 3.75391 107.765 3.75391ZM106.325 16H109.204V5.25781H106.325V16Z" fill="#56B374"/>
<path d="M119.925 5.25781V6.48242H119.871C119.076 5.55859 117.97 5.0752 116.702 5.0752C113.823 5.0752 111.643 7.39551 111.643 10.6611C111.643 13.9805 113.812 16.1826 116.799 16.1826C118.174 16.1826 119.259 15.6562 120 14.7002H120.054V16H122.804V5.25781H119.925ZM117.325 13.6045C115.714 13.6045 114.575 12.4121 114.575 10.6719C114.575 8.83496 115.789 7.66406 117.336 7.66406C118.894 7.66406 120.043 8.95312 120.043 10.6719C120.043 12.4336 118.808 13.6045 117.314 13.6045H117.325Z" fill="#56B374"/>
</svg>
